<svg xmlns="http://www.w3.org/2000/svg" width="348" height="348" fill="none" xmlns:v="https://vecta.io/nano"><g clip-path="url(#A)"><path d="M348 174a173.41 173.41 0 0 1-14.013 68.519l-.576 1.328a174.3 174.3 0 0 1-77.27 83.507 174.29 174.29 0 0 1-112.334 18.036l-3.13-.577a172.46 172.46 0 0 1-31.474-9.281l-4.921-2.065-3.326-1.498c-30.136-13.967-55.652-36.258-73.538-64.247A174.21 174.21 0 0 1 0 174C0 77.904 77.904 0 174 0s174 77.904 174 174z" fill="#6c63ff"/><g fill="#000"><path opacity=".2" d="M143.807 345.39l-3.13-.577c-.679-19.721-3.011-60.199-10.965-102.593-4.35-23.201-10.388-46.985-18.764-68.246a212.44 212.44 0 0 0-9.817-21.539c-8.463-15.984-18.728-29.441-31.176-38.558l1.833-2.502c10.352 7.589 19.657 18.241 27.912 31.959 2.476 4.108 4.854 8.49 7.135 13.148 2.445 4.983 4.777 10.273 6.996 15.871 1.416 3.562 2.783 7.248 4.103 11.057 5.745 16.541 10.629 35.413 14.651 56.617l2.543 14.399c6.234 38.079 8.113 73.286 8.679 90.964zm-39.525-11.923l-3.326-1.498c-1.076-11.686-3.053-26.182-6.667-39.942-1.583-6.181-3.615-12.237-6.08-18.121-4.123-9.653-9.462-17.858-16.365-22.919l1.833-2.497c7.228 5.293 12.803 13.658 17.112 23.444 4.855 11.027 8.093 23.861 10.249 36.123 1.601 9.107 2.61 17.905 3.244 25.41zM52.644 113.805c8.554 0 15.489-6.934 15.489-15.489s-6.935-15.489-15.489-15.489-15.489 6.935-15.489 15.489 6.935 15.489 15.489 15.489zm4.988 133.336a15.49 15.49 0 0 0 15.489-15.489c0-8.555-6.935-15.489-15.489-15.489s-15.489 6.934-15.489 15.489 6.935 15.489 15.489 15.489zm56.505-122.807c-3.285 18.531 3.966 35.31 3.966 35.31s12.577-13.265 15.861-31.796-3.966-35.311-3.966-35.311-12.576 13.265-15.861 31.797zm-51.478 43.988c17.675 6.464 35.437 2.316 35.437 2.316s-10.896-14.627-28.571-21.09-35.437-2.316-35.437-2.316 10.896 14.627 28.572 21.09zm-2.997 118.074c12.389 4.53 24.856 1.575 24.856 1.575s-7.62-10.3-20.009-14.83-24.856-1.575-24.856-1.575 7.62 10.3 20.009 14.83z"/></g><g fill="#d0cde1"><path d="M173.643 212.532c37.464 0 67.834-30.371 67.834-67.835s-30.37-67.834-67.834-67.834-67.835 30.371-67.835 67.834 30.371 67.835 67.835 67.835z"/><path d="M147.145 196.633s8.479 40.277 8.479 44.516 40.277 23.318 40.277 23.318l36.037-6.359 12.719-38.157s-21.198-31.797-21.198-44.516l-76.314 21.198z"/></g><g fill="#2f2e41"><path d="M333.987 242.519l-.576 1.328a174.3 174.3 0 0 1-77.27 83.507 174.29 174.29 0 0 1-112.334 18.036l-3.13-.577a172.46 172.46 0 0 1-31.474-9.281l-4.921-2.065-3.326-1.498a173.76 173.76 0 0 1-28.442-16.617l-8.041-23.325 4.52-3.45 9.297-7.099 9.92-7.572 2.579-1.972 38.923-29.714 2.873-2.193 20.231-15.443.005-.006s21.879 35.65 53.678 25.05 31.104-40.993 31.104-40.993l96.384 33.884zM114.817 90.046s21.537-46.664 62.817-35.895 64.611 26.922 66.406 43.074-.897 40.382-.897 40.382-4.487-33.203-33.204-26.024-73.585 1.794-73.585 1.794l-7.179 64.612s-8.076-11.666-17.05-4.487-26.024-69.098 2.692-83.456z"/><path d="M109.203 335.532l-4.921-2.065-3.326-1.498a174.44 174.44 0 0 1-45.091-30.218c4.731-6.445 8.607-9.724 8.607-9.724h31.799l4.766 16.03 8.165 27.475zm196.929-96.503l27.279 4.818a173.98 173.98 0 0 1-29.22 45.595l1.941-50.413z"/></g></g><defs><clipPath id="A"><path fill="#fff" d="M0 0h348v348H0z"/></clipPath></defs></svg>