<svg width="1040" height="555" viewBox="0 0 1040 555" fill="none" xmlns="http://www.w3.org/2000/svg">
<g clip-path="url(#clip0)">
<path opacity="0.1" d="M960.261 438.866C959.103 441.37 957.947 443.84 956.796 446.277C954.998 450.063 953.224 453.775 951.472 457.414C950.693 459.026 949.914 460.609 949.155 462.191C940.566 479.787 932.546 495.351 925.735 508.15C919.554 519.747 910.377 529.464 899.165 536.283C887.953 543.102 875.118 546.772 862.006 546.908L710.548 548.56H708.95L695.967 548.701L684.861 548.821L650.804 549.191H649.426L632.088 549.382H631.558L524.694 550.543L429.305 551.545L418.209 551.665L349.297 552.416H349.217L304.523 552.897H304.044L162.723 554.429L120.447 554.89C111.425 554.992 102.441 553.702 93.8109 551.064C78.7921 546.515 65.2945 537.945 54.7705 526.277C36.6135 506.217 23.3803 482.812 14.4916 457.414C13.2066 453.749 12.0081 450.036 10.8962 446.277C-19.8748 341.971 17.6376 207.4 85.1519 117.345C87.9817 113.58 90.858 109.908 93.781 106.329L93.8509 106.249C114.615 80.6906 137.895 59.3387 162.694 44.156C206.638 17.2057 255.326 9.61433 303.215 32.2382C343.734 51.3868 381.566 60.3903 418.239 62.8339C421.944 63.0743 425.65 63.2545 429.335 63.3647C513.458 66.0187 592.298 35.6232 684.881 16.0039C688.566 15.2227 692.261 14.4516 695.987 13.7205C762.033 0.540757 835.3 -6.40963 922.429 8.20222C931.481 9.6851 940.414 11.8273 949.155 14.6118C952.997 15.8537 956.699 17.189 960.261 18.6178C1001.85 35.5832 1024.53 66.93 1034.17 106.209C1035.08 109.854 1035.87 113.563 1036.53 117.335C1053.62 211.817 1003.58 345.837 960.261 438.866Z" fill="#6C63FF"/>
<g opacity="0.1">
<path opacity="0.3" d="M162.694 44.1561V554.539L120.417 555C111.395 555.102 102.411 553.812 93.781 551.174V106.249H93.8509C114.615 80.6607 137.895 59.3087 162.694 44.1561Z" fill="#B5B0FF"/>
<path opacity="0.3" d="M1036.58 117.345H85.1519C87.9817 113.58 90.858 109.908 93.781 106.329V106.249H1034.22C1035.13 109.874 1035.92 113.573 1036.58 117.345Z" fill="#B5B0FF"/>
<path opacity="0.3" d="M960.261 18.6279V446.267H956.796C954.998 450.053 953.224 453.765 951.472 457.404C950.693 459.017 949.914 460.599 949.155 462.181V14.5818C952.997 15.8237 956.699 17.1724 960.261 18.6279Z" fill="#B5B0FF"/>
<path opacity="0.3" d="M695.987 13.6905V548.741L684.881 548.861V15.9739C688.566 15.1927 692.261 14.4216 695.987 13.6905Z" fill="#B5B0FF"/>
<path opacity="0.1" d="M429.335 63.3347V551.645L418.239 551.765V62.804C421.944 63.0443 425.65 63.1845 429.335 63.3347Z" fill="#6C63FF"/>
<path opacity="0.3" d="M956.796 446.277C954.998 450.063 953.224 453.775 951.472 457.414H14.4916C13.2066 453.749 12.0081 450.036 10.8962 446.277H956.796Z" fill="#B5B0FF"/>
</g>
<path d="M230.308 266.228H211.332V323.975H230.308V266.228Z" fill="#3F3D56"/>
<path d="M740.99 263.224H722.014V324.315H740.99V263.224Z" fill="#3F3D56"/>
<path d="M862.006 534.449V547.469L710.279 548.871L708.661 548.901L650.994 549.432L649.616 549.452L632.088 549.602H631.568L524.724 550.593L349.337 552.226H349.187L304.593 552.647L304.114 552.657L105.966 554.479V539.457L152.556 511.415L246.038 510.634L248.035 510.624L248.694 510.614L250.692 510.584L295.575 510.213L297.582 510.203L298.222 510.193L300.219 510.183L314.611 510.063L314.99 510.053L350.495 509.752H350.785L627.833 507.409L634.615 507.359H635.294L640.467 507.309L678.069 506.998L680.067 506.968L681.915 506.948H682.873L694.569 506.858L696.886 506.828L699.992 506.808L709.729 506.718L725.18 506.588L727.177 506.568L730.653 506.548H731.302L805.917 505.907L862.006 534.449Z" fill="#65617D"/>
<path opacity="0.2" d="M862.006 534.449V547.469L710.279 548.871L708.661 548.901L650.994 549.432L649.616 549.452L632.088 549.602H631.568L524.724 550.593L349.337 552.226H349.187L304.593 552.647L304.114 552.657L105.966 554.479V539.457L152.556 511.415L246.038 510.634L248.035 510.624L248.694 510.614L250.692 510.584L295.575 510.213L297.582 510.203L298.222 510.193L300.219 510.183L314.611 510.063L314.99 510.053L350.495 509.752H350.785L627.833 507.409L634.615 507.359H635.294L640.467 507.309L678.069 506.998L680.067 506.968L681.915 506.948H682.873L694.569 506.858L696.886 506.828L699.992 506.808L709.729 506.718L725.18 506.588L727.177 506.568L730.653 506.548H731.302L805.917 505.907L862.006 534.449Z" fill="black"/>
<path d="M295.725 484.384V508.911C295.725 510.073 295.397 511.211 294.778 512.193C294.16 513.175 293.276 513.961 292.229 514.459C291.45 514.838 290.598 515.043 289.732 515.06L254.877 515.801C253.946 515.824 253.022 515.628 252.18 515.231C251.115 514.741 250.213 513.955 249.581 512.966C248.949 511.977 248.613 510.827 248.614 509.652V484.384H295.725Z" fill="#3F3D56"/>
<path opacity="0.1" d="M295.725 484.384V508.911C295.725 510.073 295.397 511.211 294.778 512.193C294.16 513.175 293.276 513.961 292.229 514.459C291.45 514.838 290.598 515.043 289.732 515.06L254.877 515.801C253.946 515.824 253.022 515.628 252.18 515.231C251.115 514.741 250.213 513.955 249.581 512.966C248.949 511.977 248.613 510.827 248.614 509.652V484.384H295.725Z" fill="black"/>
<path d="M297.722 484.384V508.911C297.723 510.073 297.395 511.211 296.776 512.193C296.157 513.175 295.273 513.961 294.227 514.459C293.447 514.838 292.596 515.043 291.73 515.06L256.874 515.801C255.943 515.824 255.02 515.628 254.177 515.231C253.112 514.741 252.21 513.955 251.578 512.966C250.946 511.977 250.611 510.827 250.612 509.652V484.384H297.722Z" fill="#3F3D56"/>
<path d="M727.177 484.384H680.067V515.931H727.177V484.384Z" fill="#3F3D56"/>
<path opacity="0.1" d="M727.177 484.384H680.067V515.931H727.177V484.384Z" fill="black"/>
<path d="M725.18 484.384H678.069V515.931H725.18V484.384Z" fill="#3F3D56"/>
<path opacity="0.1" d="M230.308 266.218V271.957L211.332 271.466V266.218H230.308Z" fill="black"/>
<path d="M355.209 104.556L332.408 268.802C332.264 269.851 331.738 270.81 330.933 271.495C330.128 272.181 329.099 272.545 328.044 272.518L145.475 267.77L142.01 267.68C141.406 267.666 140.813 267.524 140.268 267.264C139.723 267.005 139.238 266.632 138.846 266.172C138.454 265.712 138.163 265.174 137.992 264.594C137.822 264.013 137.775 263.403 137.855 262.803L163.453 90.8659C163.618 89.8009 164.175 88.8366 165.014 88.1635C165.854 87.4905 166.914 87.1575 167.987 87.2305L351.214 99.669C351.805 99.7034 352.383 99.8603 352.911 100.13C353.438 100.399 353.905 100.775 354.28 101.235C354.655 101.694 354.932 102.226 355.092 102.798C355.252 103.37 355.292 103.968 355.209 104.556Z" fill="#65617D"/>
<path d="M175.707 99.3085L156.401 250.865L324.189 256.203L344.822 109.984L175.707 99.3085Z" fill="#1F1B63"/>
<path d="M583.2 96.965H389.436C386.496 96.965 384.112 99.3549 384.112 102.303V265.217C384.112 268.165 386.496 270.555 389.436 270.555H583.2C586.14 270.555 588.523 268.165 588.523 265.217V102.303C588.523 99.3549 586.14 96.965 583.2 96.965Z" fill="#65617D"/>
<path d="M579.524 108.652H393.76V253.199H579.524V108.652Z" fill="#1F1B63"/>
<path opacity="0.1" d="M740.99 263.214V267.009L722.014 267.4V263.214H740.99Z" fill="black"/>
<path d="M826.611 260.009C826.638 260.424 826.581 260.84 826.444 261.232C826.306 261.625 826.091 261.985 825.811 262.292C825.531 262.599 825.192 262.846 824.815 263.018C824.437 263.19 824.029 263.284 823.615 263.294L636.652 267.17C635.875 267.186 635.121 266.907 634.542 266.388C633.962 265.87 633.599 265.151 633.526 264.375L617.456 96.8449C617.417 96.4292 617.461 96.0099 617.588 95.6121C617.715 95.2144 617.921 94.8466 618.194 94.531C618.466 94.2155 618.8 93.9587 619.174 93.7763C619.549 93.5939 619.957 93.4896 620.373 93.4698L805.917 84.216L807.915 84.1158C808.709 84.0739 809.488 84.3429 810.088 84.8661C810.688 85.3893 811.062 86.1257 811.13 86.92L826.611 260.009Z" fill="#65617D"/>
<path d="M628.133 103.315L797.588 94.962L811.9 247.19L643.783 251.196L628.133 103.315Z" fill="#1F1B63"/>
<path opacity="0.1" d="M826.611 260.009C826.638 260.424 826.581 260.84 826.444 261.232C826.306 261.625 826.091 261.985 825.811 262.292C825.531 262.599 825.192 262.846 824.815 263.018C824.437 263.19 824.029 263.284 823.615 263.294L805.917 84.216L807.915 84.1158C808.709 84.0739 809.488 84.3429 810.088 84.8661C810.688 85.3893 811.062 86.1257 811.131 86.92L826.611 260.009Z" fill="black"/>
<path opacity="0.1" d="M168.017 87.2204L145.475 267.77L142.01 267.68C141.406 267.666 140.813 267.524 140.268 267.264C139.723 267.005 139.238 266.632 138.846 266.172C138.454 265.712 138.163 265.174 137.992 264.594C137.822 264.013 137.775 263.403 137.855 262.803L163.453 90.8659C163.616 89.7935 164.176 88.8223 165.022 88.1465C165.869 87.4707 166.938 87.1399 168.017 87.2204Z" fill="black"/>
<path opacity="0.1" d="M230.308 306.869H211.332V323.974H230.308V306.869Z" fill="black"/>
<path opacity="0.1" d="M297.722 484.374V489.352L250.612 490.614V484.374H297.722Z" fill="black"/>
<path d="M380.867 312.828V481.28C380.855 482.308 380.449 483.292 379.733 484.029C379.017 484.765 378.046 485.197 377.022 485.236L185.614 490.343H185.565C184.522 490.33 183.526 489.909 182.789 489.17C182.052 488.431 181.632 487.433 181.62 486.387V312.828C181.632 311.783 182.052 310.784 182.789 310.045C183.526 309.306 184.522 308.885 185.565 308.872H376.922C377.964 308.885 378.96 309.306 379.697 310.045C380.434 310.784 380.854 311.783 380.867 312.828Z" fill="#65617D"/>
<path opacity="0.1" d="M185.614 308.872V490.343H185.565C184.522 490.33 183.526 489.909 182.789 489.17C182.052 488.431 181.632 487.433 181.62 486.387V312.828C181.632 311.783 182.052 310.784 182.789 310.045C183.526 309.306 184.522 308.885 185.565 308.872H185.614Z" fill="black"/>
<path d="M194.353 319.628H371.628V468.1L194.353 472.106V319.628Z" fill="#323232"/>
<path opacity="0.1" d="M740.99 306.869H722.014V324.315H740.99V306.869Z" fill="black"/>
<path opacity="0.1" d="M725.18 484.374V490.794L678.069 489.532V484.374H725.18Z" fill="black"/>
<path d="M787.351 312.828V486.387C787.338 487.441 786.911 488.447 786.163 489.188C785.415 489.928 784.407 490.343 783.356 490.343L591.909 485.236C590.884 485.197 589.913 484.765 589.197 484.029C588.482 483.292 588.076 482.308 588.064 481.28V312.828C588.077 311.783 588.496 310.784 589.233 310.045C589.97 309.306 590.966 308.885 592.009 308.872H783.366C784.415 308.874 785.421 309.291 786.167 310.031C786.912 310.771 787.338 311.776 787.351 312.828Z" fill="#65617D"/>
<path opacity="0.1" d="M787.351 312.828V486.387C787.338 487.441 786.911 488.447 786.163 489.188C785.415 489.928 784.407 490.343 783.356 490.343V308.872C784.407 308.872 785.415 309.287 786.163 310.028C786.911 310.768 787.338 311.774 787.351 312.828Z" fill="black"/>
<path d="M774.617 319.628H597.342V468.1L774.617 472.106V319.628Z" fill="#323232"/>
<path d="M583.11 312.828V481.28C583.098 482.308 582.692 483.292 581.976 484.029C581.26 484.765 580.29 485.197 579.265 485.236L387.858 490.343C386.807 490.343 385.798 489.928 385.05 489.188C384.303 488.447 383.876 487.441 383.863 486.387V312.828C383.876 311.783 384.296 310.784 385.033 310.045C385.77 309.306 386.766 308.885 387.808 308.872H579.165C580.207 308.885 581.203 309.306 581.94 310.045C582.677 310.784 583.097 311.783 583.11 312.828Z" fill="#65617D"/>
<path d="M396.597 319.628H573.872V468.1L396.597 472.106V319.628Z" fill="#323232"/>
<path opacity="0.1" d="M862.006 534.449V547.469L710.279 548.871L708.661 548.901L650.994 549.432L649.616 549.452L632.088 549.602H631.568L524.724 550.593L349.337 552.226H349.187L304.593 552.647L304.114 552.657L105.966 554.479V539.457L308.219 538.125H308.698L349.636 537.844H349.826L632.547 535.972H632.837L633.007 535.962H633.476L638.26 535.932H639.718L714.114 535.431L718.508 535.411L719.487 535.401L862.006 534.449Z" fill="black"/>
<path d="M486.642 323.975C514.955 323.975 537.907 300.959 537.907 272.568C537.907 244.176 514.955 221.161 486.642 221.161C458.33 221.161 435.377 244.176 435.377 272.568C435.377 300.959 458.33 323.975 486.642 323.975Z" fill="#FBBEBE"/>
<path d="M537.917 377.725C537.917 377.725 438.543 389.743 448.031 377.725C451.467 373.378 452.416 360.499 452.226 345.827C452.166 341.371 452.006 336.754 451.777 332.157C450.678 310.124 448.031 288.592 448.031 288.592C448.031 288.592 534.921 247.53 524.934 280.079C520.939 293.229 522.247 311.696 525.283 329.032C526.172 334.09 527.201 339.047 528.28 343.754C530.912 355.235 534.129 366.574 537.917 377.725Z" fill="#FBBEBE"/>
<path opacity="0.1" d="M537.917 377.725C537.917 377.725 438.543 389.743 448.031 377.725C451.467 373.378 452.416 360.499 452.226 345.827C467.377 339.338 486.652 344.175 486.652 344.175C506.947 340.119 519.96 340.91 528.28 343.754C530.912 355.235 534.129 366.574 537.917 377.725Z" fill="black"/>
<path d="M349.297 553.358V552.516L524.694 550.604L631.558 549.602H631.858L631.748 551.084L631.898 549.602H632.088V549.432L633.456 535.962L633.975 530.864L634.135 529.272L634.275 527.94L640.447 507.299L646.619 486.688L651.813 469.332L659.743 442.812C659.743 442.812 655.248 432.297 652.752 429.292C650.255 426.288 647.758 405.757 647.758 405.757C647.758 405.757 626.445 385.396 617.127 383.053C613.222 382.051 605.512 380.719 597.322 379.047C594.256 378.426 591.11 377.765 588.084 377.044C586.376 376.653 584.698 376.243 583.09 375.832C579.96 375.048 576.876 374.092 573.852 372.968C572.266 372.39 570.757 371.62 569.357 370.674C562.017 365.276 543.62 364.665 542.911 364.665C542.909 364.642 542.909 364.619 542.911 364.595V364.505C542.937 364.085 542.937 363.663 542.911 363.243C542.911 362.843 542.911 362.372 542.821 361.841C542.821 361.681 542.821 361.511 542.751 361.34C542.701 360.98 542.641 360.599 542.551 360.199C542.521 360.02 542.481 359.843 542.432 359.668C542.142 358.461 541.724 357.289 541.183 356.173C541.113 356.012 541.023 355.842 540.943 355.682C540.454 354.757 539.886 353.876 539.246 353.048C539.116 352.878 538.976 352.697 538.826 352.527C538.008 351.56 537.098 350.674 536.11 349.883C535.84 349.673 535.56 349.453 535.271 349.252C535.109 349.121 534.939 349 534.761 348.892L533.872 348.311L533.043 347.83C532.314 347.43 531.545 347.039 530.706 346.668C530.447 346.548 530.167 346.438 529.888 346.328C529.608 346.218 529.168 346.048 528.799 345.907H528.739L527.99 345.607C527.421 345.417 526.841 345.246 526.232 345.076L525.303 344.836L524.305 344.605L523.306 344.395C522.307 344.195 521.238 344.015 520.12 343.874L518.981 343.734L517.813 343.614L516.604 343.514L514.887 343.414L512.889 343.344C504.08 343.343 495.295 344.279 486.682 346.138C480.699 344.803 474.571 344.237 468.445 344.455H467.577L466.578 344.515H465.939L464.65 344.635C464.221 344.635 463.781 344.726 463.352 344.786C462.923 344.846 462.473 344.896 462.044 344.966L461.384 345.076C460.735 345.186 460.076 345.306 459.387 345.447C459.167 345.487 458.948 345.537 458.728 345.597C457.859 345.787 456.99 346.017 456.131 346.278C455.702 346.398 455.272 346.538 454.843 346.689C454.623 346.749 454.413 346.829 454.204 346.909L453.564 347.139L452.935 347.39L452.186 347.69C451.807 347.85 451.437 348.021 451.068 348.201C450.858 348.291 450.648 348.391 450.448 348.501C450.249 348.611 450.039 348.702 449.849 348.812C447.591 349.982 445.504 351.458 443.647 353.198L443.138 353.689L442.638 354.2C442.468 354.37 442.309 354.55 442.149 354.731C441.498 355.444 440.891 356.197 440.331 356.984C440.171 357.194 440.022 357.405 439.872 357.625C439.238 358.562 438.664 359.539 438.154 360.549C438.024 360.79 437.904 361.04 437.784 361.28C436.969 362.972 436.301 364.731 435.787 366.538C435.6 367.206 435.431 367.874 435.278 368.541C435.278 368.541 414.134 377.895 396.597 384.665C391.933 386.468 387.538 388.1 383.863 389.332C382.794 389.693 381.795 390.023 380.867 390.334C378.851 391.064 376.755 391.548 374.625 391.776C373.62 391.792 372.618 391.886 371.628 392.056C363.569 393.368 349.756 399.067 348.248 404.785C348.126 405.242 348.092 405.718 348.148 406.188C348.148 406.188 348.148 406.258 348.148 406.298C349.147 413.308 342.156 412.307 342.156 412.307C342.156 412.307 339.659 430.834 336.163 435.842C333.637 439.447 331.909 447.489 331.689 453.558C331.563 455.449 331.711 457.348 332.128 459.197C332.128 459.247 332.128 459.297 332.128 459.337C332.528 460.679 331.569 464.345 329.941 469.042C328.174 474.199 325.597 480.609 323.12 486.658C319.385 495.792 315.869 504.084 315.649 505.907C315.56 506.718 315.3 508.17 314.94 510.043C313.482 517.674 310.246 532.206 308.648 538.085C307.46 542.471 305.732 548.48 304.543 552.607C304.543 552.727 304.474 552.847 304.444 552.957L349.217 552.516V553.358H349.357H349.297Z" fill="#4D4D52"/>
<path opacity="0.1" d="M365.636 435.311C365.636 435.311 422.564 464.855 443.038 461.35L365.636 435.311Z" fill="black"/>
<path opacity="0.1" d="M481.489 423.293C481.489 423.293 536.919 441.32 555.395 443.824C573.872 446.328 481.489 423.293 481.489 423.293Z" fill="black"/>
<path opacity="0.1" d="M542.971 365.286C514.008 370.634 459.477 369.483 435.907 368.671C444.546 337.625 486.672 348.181 486.672 348.181C538.816 337.745 542.811 359.397 542.971 365.286Z" fill="black"/>
<path d="M542.971 363.283C514.008 368.631 459.477 367.48 435.907 366.668C444.546 335.622 486.672 346.178 486.672 346.178C538.816 335.742 542.811 357.395 542.971 363.283Z" fill="#4D4D52"/>
<path d="M696.716 500.158C696.716 500.158 730.832 494.9 731.502 509.923C732.171 524.945 714.104 535.441 714.104 535.441L696.716 500.158Z" fill="#FBBEBE"/>
<path opacity="0.1" d="M525.283 329.032C523.816 329.69 522.316 330.271 520.789 330.775C510.023 334.5 499.166 338.256 487.831 339.618C476.495 340.98 464.6 339.778 454.713 334.11C453.675 333.522 452.674 332.869 451.717 332.157C450.618 310.124 447.971 288.592 447.971 288.592C447.971 288.592 534.861 247.53 524.874 280.079C520.899 293.229 522.247 311.696 525.283 329.032Z" fill="black"/>
<path d="M472.58 192.217C471.155 192.595 469.661 192.633 468.218 192.329C466.776 192.025 465.424 191.386 464.271 190.465L466.348 193.359C465.124 193.501 463.884 193.373 462.714 192.983C461.544 192.594 460.474 191.953 459.577 191.106C459.388 193.697 459.496 196.301 459.896 198.867C456.459 199.034 453.075 197.969 450.348 195.863C450.295 196.766 450.519 197.665 450.991 198.436C451.462 199.208 452.158 199.816 452.985 200.179C449.532 199.766 446.047 200.626 443.18 202.6C440.313 204.573 438.261 207.526 437.405 210.905L442.618 211.386C438.521 212.264 434.844 214.514 432.191 217.766C430.594 219.769 429.375 222.333 430.074 224.776C430.773 227.22 434.149 228.782 435.987 227.04C433.373 230.168 431.473 233.832 430.42 237.775C429.368 241.718 429.188 245.844 429.894 249.864C430.368 251.577 430.524 253.362 430.354 255.132C430.024 256.784 428.986 258.216 428.466 259.829C427.467 262.753 428.416 265.928 429.305 268.842L433.989 284.285C435.687 289.864 437.375 295.452 439.592 300.85C441.162 304.263 442.497 307.78 443.587 311.376C444.845 316.223 444.895 321.531 447.582 325.767C449.423 328.433 451.884 330.609 454.753 332.107C464.63 337.775 476.565 338.977 487.871 337.615C499.176 336.253 510.023 332.497 520.779 328.772C523.169 328.05 525.462 327.041 527.61 325.767C535.051 320.88 536.709 310.885 538.097 302.082C539.645 292.267 541.712 282.472 545.378 273.239C547.555 267.74 550.371 262.162 549.892 256.273C549.283 248.452 543.111 242.112 541.583 234.421C541.071 231.85 541.095 229.2 541.653 226.639C542.126 225.113 542.392 223.529 542.441 221.932C542.272 218.707 539.635 216.223 537.158 214.15C531.785 209.65 526.239 205.397 520.519 201.391C520.23 199.388 522.946 198.527 524.175 196.945C525.912 194.711 524.115 191.166 521.478 190.124C518.841 189.083 515.885 189.764 513.139 190.455C513.318 189.045 513.038 187.615 512.342 186.378C511.645 185.14 510.569 184.161 509.273 183.586C507.977 183.011 506.53 182.871 505.148 183.186C503.767 183.502 502.523 184.256 501.603 185.337C500.874 183.66 499.709 182.21 498.229 181.139C496.75 180.068 495.011 179.415 493.194 179.248C486.572 178.727 486.443 183.805 482.208 186.599C477.973 189.393 474.478 185.708 471.222 183.024C470.624 184.541 470.434 186.189 470.673 187.803C470.911 189.417 471.569 190.939 472.58 192.217Z" fill="#3F3D56"/>
<path d="M722.014 530.203C722.014 530.203 721.125 532.326 719.487 535.401C717.009 540.131 713.993 544.557 710.498 548.59L710.229 548.881H708.611L650.944 549.412H649.566L649.396 549.211L638.21 535.901L633.995 530.884L633.826 530.674L633.466 530.253L633.266 530.013L633.007 529.702L624.807 519.948L627.803 507.429L632.907 486.337L633.037 485.827L634.035 481.821L634.744 478.816L637.121 469.021L645.271 435.321L659.753 442.832L675.023 469.873L683.223 484.394H687.717C688.566 484.394 690.514 486.037 692.471 487.93C693.17 488.601 693.869 489.312 694.469 489.933C696.246 491.775 697.655 493.358 697.655 493.358C697.655 493.358 704.935 493.518 706.893 499.267C706.994 499.545 707.077 499.829 707.142 500.118C707.792 502.378 708.638 504.576 709.669 506.688C710.958 509.502 712.576 512.697 714.214 515.892C717.26 521.75 720.356 527.329 721.494 529.352L721.634 529.602L722.014 530.203Z" fill="#4D4D52"/>
<path opacity="0.1" d="M636.223 484.985L636.123 486.417V486.518L635.953 488.821L634.625 507.359L633.017 529.692L632.557 535.982L631.558 549.442V549.612L524.694 550.614L349.327 552.516V553.358H349.187V552.516V552.236L349.636 537.854L350.495 509.752L351.234 485.927L351.304 483.553C351.348 482.121 351.682 480.712 352.287 479.413C352.892 478.115 353.754 476.953 354.822 476C355.889 475.047 357.139 474.322 358.495 473.869C359.852 473.417 361.286 473.246 362.71 473.368C367.424 473.769 373.546 474.259 380.867 474.78L383.863 475C426.139 477.945 504.27 481.751 583.11 477.003C584.768 476.913 586.436 476.813 588.104 476.693C600.328 475.922 612.543 474.93 624.637 473.688C626.166 473.528 627.712 473.705 629.165 474.208C630.618 474.711 631.943 475.528 633.048 476.6C634.153 477.672 635.009 478.974 635.558 480.414C636.106 481.854 636.333 483.398 636.223 484.935V484.985Z" fill="black"/>
<path d="M349.297 553.357V552.516L524.694 550.603L631.558 549.602H631.858V549.432L632.857 535.971L633.286 529.962L634.924 507.319L636.212 489.392V488.951C636.272 488.125 636.235 487.295 636.103 486.477C636.108 486.444 636.108 486.41 636.103 486.377C635.828 484.687 635.142 483.091 634.105 481.73C633.005 480.316 631.565 479.206 629.919 478.505C628.272 477.805 626.476 477.536 624.697 477.724C612.603 478.966 600.388 479.958 588.163 480.729C586.496 480.849 584.828 480.949 583.17 481.039C504.33 485.736 426.199 481.931 383.923 479.036L380.927 478.816C373.606 478.295 367.484 477.814 362.77 477.404C360.176 477.184 357.594 477.936 355.521 479.514C353.448 481.091 352.031 483.383 351.544 485.947C351.443 486.489 351.383 487.038 351.364 487.589L350.685 509.782L349.756 537.894L349.317 552.276V552.556V553.397L349.297 553.357Z" fill="#3F3D56"/>
<path opacity="0.1" d="M636.522 492.006L635.294 507.359L633.466 530.243L633.007 535.972L632.008 548.801L631.948 549.442V549.612L631.798 551.094L631.908 549.612H631.618L524.754 550.613L349.327 552.516V552.236L349.816 537.854L350.815 509.752L351.454 491.074C351.485 490.012 351.781 488.974 352.315 488.056C352.849 487.137 353.604 486.368 354.51 485.817C355.641 485.121 356.963 484.806 358.285 484.915C360.383 485.085 362.959 485.286 365.966 485.506C370.849 485.867 376.872 486.287 383.883 486.728C396.866 487.549 413.156 488.43 431.822 489.152C483.756 491.155 553.867 491.825 620.463 485.977C623.459 485.716 626.555 485.426 629.581 485.135C630.779 485.016 631.986 485.245 633.057 485.796C633.36 485.948 633.648 486.129 633.915 486.337C634.785 486.969 635.474 487.819 635.913 488.801C636.015 488.996 636.098 489.201 636.163 489.412C636.463 490.242 636.585 491.125 636.522 492.006Z" fill="black"/>
<path opacity="0.1" d="M297.722 505.716V508.911C297.723 510.073 297.395 511.211 296.776 512.193C296.157 513.175 295.273 513.961 294.227 514.459L254.177 515.231C253.112 514.741 252.21 513.955 251.578 512.966C250.946 511.977 250.611 510.827 250.612 509.652V506.648L297.722 505.716Z" fill="black"/>
<path d="M298.221 516.342L246.038 517.344V508.661L298.221 507.659V516.342Z" fill="#3F3D56"/>
<path opacity="0.1" d="M298.221 516.342L246.038 517.344V508.661L298.221 507.659V516.342Z" fill="black"/>
<path d="M300.219 516.342L248.035 517.344V508.661L300.219 507.659V516.342Z" fill="#3F3D56"/>
<g opacity="0.1">
<path opacity="0.1" d="M472.99 188.933C472.014 187.661 471.366 186.168 471.102 184.586C470.861 186.133 471.005 187.715 471.522 189.193C472.017 189.147 472.508 189.06 472.99 188.933Z" fill="black"/>
<path opacity="0.1" d="M460.306 195.583C460.118 194.355 459.994 193.118 459.936 191.877C459.936 193.109 459.936 194.351 459.936 195.592L460.306 195.583Z" fill="black"/>
<path opacity="0.1" d="M541.702 229.002C541.758 228.11 541.878 227.223 542.062 226.348C542.534 224.825 542.803 223.246 542.861 221.651C542.839 221.294 542.785 220.938 542.701 220.59C542.531 221.511 542.262 222.433 542.062 223.344C541.663 225.202 541.542 227.109 541.702 229.002Z" fill="black"/>
<path opacity="0.1" d="M520.929 198.056L522.017 198.847C522.935 198.182 523.794 197.438 524.584 196.624C524.96 196.103 525.193 195.492 525.259 194.852C525.326 194.212 525.224 193.566 524.964 192.979C524.864 193.207 524.737 193.423 524.584 193.62C523.356 195.202 520.639 196.073 520.929 198.056Z" fill="black"/>
<path opacity="0.1" d="M438.863 207.691C438.499 208.421 438.208 209.186 437.994 209.974C439.556 209.1 441.239 208.462 442.988 208.081L438.863 207.691Z" fill="black"/>
<path opacity="0.1" d="M452.635 196.794C451.979 196.432 451.352 196.02 450.758 195.562C450.733 195.959 450.763 196.356 450.848 196.744C451.444 196.716 452.042 196.733 452.635 196.794Z" fill="black"/>
<path opacity="0.1" d="M550.282 255.802C549.872 260.66 547.615 265.337 545.787 269.944C542.122 279.177 540.055 288.972 538.507 298.797C537.118 307.6 535.51 317.595 528.02 322.472C525.88 323.754 523.588 324.764 521.198 325.477C510.432 329.212 499.576 332.958 488.24 334.32C476.905 335.682 465.01 334.49 455.122 328.822C452.256 327.322 449.795 325.146 447.951 322.482C445.285 318.246 445.235 312.938 443.957 308.091C442.866 304.491 441.532 300.971 439.962 297.555C437.754 292.167 436.057 286.538 434.369 281C432.804 275.852 431.243 270.701 429.685 265.547C429.172 263.997 428.791 262.405 428.546 260.79C428.157 263.354 428.916 266.038 429.685 268.552C431.243 273.713 432.804 278.864 434.369 284.005C436.057 289.583 437.754 295.171 439.962 300.559C441.532 303.976 442.866 307.496 443.957 311.095C445.215 315.942 445.265 321.25 447.951 325.487C449.795 328.151 452.256 330.326 455.122 331.826C465.01 337.495 476.935 338.686 488.24 337.324C499.546 335.962 510.392 332.217 521.198 328.481C523.588 327.768 525.88 326.759 528.02 325.477C535.46 320.599 537.118 310.604 538.507 301.801C540.055 291.977 542.122 282.182 545.787 272.948C547.965 267.46 550.781 261.882 550.302 255.983C550.302 255.923 550.282 255.863 550.282 255.802Z" fill="black"/>
<path opacity="0.1" d="M430.743 251.927C430.743 251.927 430.743 251.857 430.743 251.817C430.923 250.051 430.768 248.266 430.284 246.559C430.085 245.46 429.955 244.349 429.894 243.234C429.779 245.352 429.91 247.476 430.284 249.563C430.444 250.344 430.623 251.136 430.743 251.927Z" fill="black"/>
<path opacity="0.1" d="M433.789 227.43C434.558 226.136 435.429 224.907 436.396 223.755C434.568 225.507 431.193 223.945 430.484 221.511C430.222 222.496 430.222 223.531 430.484 224.516C430.73 225.251 431.165 225.907 431.745 226.419C432.326 226.931 433.031 227.28 433.789 227.43Z" fill="black"/>
</g>
<path opacity="0.1" d="M683.233 484.384C683.233 484.384 686.399 495.902 683.233 505.917C680.067 515.932 683.233 484.384 683.233 484.384Z" fill="black"/>
<path opacity="0.1" d="M696.716 496.132C696.716 496.132 698.044 510.754 695.048 513.348C692.052 515.942 696.716 496.132 696.716 496.132Z" fill="black"/>
<path d="M198.738 343.374L300.219 342.372" stroke="#6C63FF" stroke-width="2" stroke-miterlimit="10"/>
<path d="M198.738 355.862L300.219 354.871" stroke="#6C63FF" stroke-width="2" stroke-miterlimit="10"/>
<path d="M198.738 368.361L300.219 367.359" stroke="#6C63FF" stroke-width="2" stroke-miterlimit="10"/>
</g>
<defs>
<clipPath id="clip0">
<rect width="1040" height="555" fill="white"/>
</clipPath>
</defs>
</svg>
