<svg width="540" height="471" viewBox="0 0 540 471" fill="none" xmlns="http://www.w3.org/2000/svg">
<path opacity="0.2" d="M488.868 169.368H457.7V185.527H488.868V169.368Z" fill="#6100FF"/>
<path opacity="0.2" d="M491.265 189.118H460.098V205.277H491.265V189.118Z" fill="#6100FF"/>
<path opacity="0.2" d="M465.492 52.0673H434.324V68.2262H465.492V52.0673Z" fill="#6100FF"/>
<path opacity="0.2" d="M487.668 70.6201H456.501V86.7789H487.668V70.6201Z" fill="#6100FF"/>
<path opacity="0.2" d="M427.731 53.2643H396.564V69.4231H427.731V53.2643Z" fill="#6100FF"/>
<path opacity="0.2" d="M527.827 89.1728H496.659V105.332H527.827V89.1728Z" fill="#6100FF"/>
<path opacity="0.2" d="M490.066 90.3698H458.899V106.529H490.066V90.3698Z" fill="#6100FF"/>
<path opacity="0.2" d="M449.908 71.817H418.741V87.9759H449.908V71.817Z" fill="#6100FF"/>
<path opacity="0.2" d="M526.029 213.656H494.861V229.814H526.029V213.656Z" fill="#6100FF"/>
<path opacity="0.2" d="M488.268 214.853H457.101V231.011H488.268V214.853Z" fill="#6100FF"/>
<path d="M78.3682 165.179C78.3682 165.179 122.296 209.041 97.5002 274.102C72.7041 339.162 140.002 447.444 140.002 447.444C140.002 447.444 139.283 447.336 137.946 447.103C47.7282 431.201 2.901 328.174 53.0926 251.659C71.7211 223.177 87.0291 189.8 78.3682 165.179Z" fill="#41F823"/>
<path d="M78.3682 165.179C78.3682 165.179 103.164 218.946 78.3682 262.802C53.5721 306.659 74.1187 429.777 140.008 447.444" stroke="#535461" stroke-width="2" stroke-miterlimit="10"/>
<path d="M0.125977 342.579C0.125977 342.579 50.2516 334.607 54.8188 379.463C59.3861 424.319 151.21 430.537 151.21 430.537C151.21 430.537 150.611 430.944 149.49 431.68C73.6751 481.354 1.20485 463.333 12.1314 397.352C16.1892 372.82 15.8535 348.181 0.125977 342.579Z" fill="#8540F5"/>
<path opacity="0.2" d="M0.125977 342.579C0.125977 342.579 50.2516 334.607 54.8188 379.463C59.3861 424.319 151.21 430.537 151.21 430.537C151.21 430.537 150.611 430.944 149.49 431.68C73.6751 481.354 1.20485 463.333 12.1314 397.352C16.1892 372.82 15.8535 348.181 0.125977 342.579Z" fill="#41F823"/>
<path d="M0.125977 342.579C0.125977 342.579 39.0313 351.108 35.8367 386.429C32.642 421.751 93.6163 464.118 151.21 430.537" stroke="#535461" stroke-width="2" stroke-miterlimit="10"/>
<path opacity="0.2" d="M31.5451 169.967H0.377686V186.126H31.5451V169.967Z" fill="#6100FF"/>
<path opacity="0.2" d="M53.7219 188.52H22.5544V204.678H53.7219V188.52Z" fill="#8540F5"/>
<path opacity="0.2" d="M222.146 0H190.979V16.1588H222.146V0Z" fill="#6100FF"/>
<path opacity="0.2" d="M467.889 298.041H436.722V314.199H467.889V298.041Z" fill="#6100FF"/>
<path opacity="0.2" d="M56.1194 208.269H24.9519V224.428H56.1194V208.269Z" fill="#6100FF"/>
<path opacity="0.2" d="M244.323 18.5527H213.155V34.7116H244.323V18.5527Z" fill="#6100FF"/>
<path opacity="0.2" d="M130.442 128.074H99.2744V144.233H130.442V128.074Z" fill="#6100FF"/>
<path opacity="0.2" d="M152.619 146.626H121.451V162.785H152.619V146.626Z" fill="#6100FF"/>
<path opacity="0.2" d="M211.957 136.452H180.789V152.611H211.957V136.452Z" fill="#6100FF"/>
<path opacity="0.2" d="M155.016 166.376H123.849V182.535H155.016V166.376Z" fill="#6100FF"/>
<path opacity="0.2" d="M509.846 298.041H478.678V314.199H509.846V298.041Z" fill="#6100FF"/>
<path d="M431.939 234.07C429.921 222.855 428.683 211.515 428.235 200.13C427.836 190.754 424.543 181.73 418.806 174.297C413.07 166.863 405.171 161.383 396.192 158.608C392.919 157.602 389.317 156.663 385.337 155.819C350.454 148.422 339.857 154.879 338.652 155.729C337.632 153.877 336.745 151.955 335.997 149.978C335.937 149.774 335.883 149.571 335.823 149.379C342.727 142.028 346.933 132.558 347.757 122.514C353.577 116.625 356.975 109.515 356.975 101.861C356.975 95.2773 354.458 89.101 350.052 83.7566V73.3551C350.052 61.3602 345.28 49.8566 336.786 41.375C328.291 32.8933 316.77 28.1284 304.758 28.1284H301.083C295.135 28.1284 289.245 29.2982 283.75 31.571C278.255 33.8439 273.261 37.1753 269.055 41.375C264.849 45.5747 261.513 50.5604 259.237 56.0476C256.96 61.5348 255.789 67.4159 255.789 73.3551V84.5646C251.791 89.7174 249.525 95.6004 249.525 101.849C249.525 109.341 252.786 116.308 258.384 122.125C259.149 132.537 263.548 142.352 270.815 149.858C271.061 151.558 271.313 153.383 271.558 155.31L209.163 168.471C209.163 168.471 185.105 169.458 169.605 201.387C156.496 228.432 130.412 297.915 122.686 318.598C121.289 322.345 120.498 324.493 120.498 324.493C120.498 324.493 120.756 324.236 121.241 323.793L120.498 325.81C120.498 325.81 120.876 325.427 121.595 324.799C120.504 333.452 120.348 348.313 131.7 350.162C141.218 351.712 165.745 352.352 184.271 352.61H185.554C197.835 352.771 207.18 352.771 207.18 352.771V352.61H406.435V350.569C406.438 348.718 406.065 346.886 405.339 345.183L405.614 344.847C406.681 346.253 407.39 347.896 407.682 349.635C407.659 349.804 407.627 349.972 407.586 350.138L407.706 349.833C407.753 350.376 407.712 350.924 407.586 351.455C407.586 351.455 433.149 285.688 432.874 246.416C432.947 242.281 432.634 238.147 431.939 234.07ZM272.595 164.198C272.265 162.322 272.053 160.427 271.96 158.524C271.96 158.524 271.96 158.488 271.96 158.47C272.182 160.32 272.397 162.235 272.595 164.198ZM195.144 305.462V321.136L185.314 323.236L195.144 305.462Z" fill="url(#paint0_linear)"/>
<path d="M301.911 34.4542C313.924 34.4542 325.444 39.2192 333.939 47.7008C342.433 56.1825 347.205 67.6861 347.205 79.681V98.9758H256.616V79.681C256.616 67.6861 261.388 56.1825 269.882 47.7008C278.377 39.2192 289.898 34.4542 301.911 34.4542Z" fill="#E14B5A"/>
<path d="M302.228 140.725C330.743 140.725 353.859 124.866 353.859 105.302C353.859 85.7377 330.743 69.8779 302.228 69.8779C273.714 69.8779 250.598 85.7377 250.598 105.302C250.598 124.866 273.714 140.725 302.228 140.725Z" fill="#E14B5A"/>
<path d="M269.131 139.618C269.131 139.618 279.92 195.917 269.131 211.1C258.342 226.283 302.096 232.292 302.096 232.292L347.385 215.846L353.721 175.359C353.721 175.359 326.149 159.859 331.861 128.547L269.131 139.618Z" fill="#F7C4A7"/>
<path d="M402.803 329.395C402.803 329.395 405.656 341.729 390.132 343.944C380.966 345.29 371.645 345.179 362.513 343.615L359.091 312.631H395.203L402.803 329.395Z" fill="#F7C4A7"/>
<path d="M128.686 313.607C128.686 313.607 121.829 341.43 137.352 343.944C152.876 346.457 209.877 346.475 209.877 346.475V313.559L184.068 319.065L159.841 295.868L128.686 313.607Z" fill="#F7C4A7"/>
<path opacity="0.1" d="M272.464 157.806L211.801 170.613C211.801 170.613 188.677 171.565 173.789 202.243C158.9 232.921 126.588 320.537 126.588 320.537C126.588 320.537 154.159 292.702 186.459 322.434L208.001 283.534L203.248 345.212H370.162V316.109C370.162 316.109 405.003 334.769 402.474 345.206C402.474 345.206 432.293 268.494 425.849 233.633C423.91 222.856 422.72 211.957 422.289 201.016C421.909 192.005 418.744 183.332 413.23 176.188C407.716 169.044 400.123 163.779 391.493 161.115C388.353 160.152 384.9 159.248 381.064 158.44C345.27 150.852 336.111 158.44 336.111 158.44C336.111 158.44 329.176 180.967 329.302 191.177C329.458 204.301 310.614 213.003 310.614 213.003C310.614 213.003 282.737 206.36 281.472 200.986C280.207 195.612 270.234 164.132 272.464 157.806Z" fill="black"/>
<path d="M272.463 156.543L211.801 169.351C211.801 169.351 188.677 170.302 173.788 200.98C158.9 231.658 126.582 319.287 126.582 319.287C126.582 319.287 154.153 291.451 186.453 321.184L207.995 282.283L203.242 343.944H370.161V314.846C370.161 314.846 405.003 333.506 402.474 343.944C402.474 343.944 432.293 267.231 425.849 232.37C423.91 221.593 422.72 210.694 422.289 199.753C421.908 190.742 418.744 182.069 413.23 174.925C407.716 167.781 400.123 162.516 391.493 159.853C388.352 158.889 384.9 157.985 381.064 157.178C345.269 149.589 336.111 157.178 336.111 157.178C336.111 157.178 329.176 179.704 329.302 189.914C329.458 203.039 310.614 211.741 310.614 211.741C310.614 211.741 282.737 205.097 281.472 199.723C280.207 194.349 270.234 162.869 272.463 156.543Z" fill="#8540F5"/>
<path opacity="0.1" d="M334.451 153.856C331.903 146.653 331.331 138.899 332.796 131.401L270.066 142.467C270.066 142.467 270.971 147.201 271.996 154.293C276.049 158.492 280.915 161.825 286.299 164.088C291.682 166.35 297.47 167.496 303.311 167.455C309.152 167.415 314.924 166.188 320.275 163.85C325.626 161.512 330.445 158.112 334.439 153.856H334.451Z" fill="black"/>
<path d="M345.15 121.592C345.1 132.879 340.611 143.694 332.649 151.705C324.687 159.717 313.891 164.284 302.588 164.42C291.286 164.557 280.382 160.253 272.228 152.436C264.075 144.619 259.324 133.916 259.001 122.634C259.001 122.286 259.001 121.939 259.001 121.592C259 113.538 261.262 105.645 265.531 98.8109C269.8 91.9771 275.905 86.4771 283.15 82.9367C284.441 82.3063 285.768 81.7397 287.13 81.237C294.217 78.6357 301.861 77.9261 309.307 79.1783C318.849 80.8007 327.566 85.5873 334.049 92.7651C340.531 99.9428 344.402 109.093 345.036 118.737C345.112 119.683 345.15 120.635 345.15 121.592Z" fill="#F7C4A7"/>
<g opacity="0.1">
<path opacity="0.1" d="M287.064 82.2485L287.124 82.2126C285.762 82.7153 284.435 83.2819 283.144 83.9123C275.899 87.4526 269.794 92.9526 265.525 99.7865C261.256 106.62 258.994 114.513 258.996 122.568C258.996 122.915 258.996 123.262 258.996 123.609C260.335 123.573 261.652 123.257 262.862 122.681C273.363 117.786 279.644 102.812 282.137 92.3687C283.037 88.6282 283.882 84.415 287.064 82.2485Z" fill="black"/>
<path opacity="0.1" d="M320.036 83.4514C316.626 81.8873 313.025 80.7786 309.325 80.1538C312.359 80.851 315.069 82.5507 317.015 84.9775C317.969 86.2726 318.76 87.6795 319.371 89.1669C313.637 86.6638 307.428 85.4344 301.172 85.5636C294.916 85.6927 288.763 87.1774 283.138 89.9149C285.842 95.8339 294.227 99.0596 299.825 101.22C305.955 103.582 312.148 105.743 318.406 107.702L312.867 103.213L325.376 105.2C325.511 102.714 325.215 100.224 324.501 97.8388C326.899 99.7658 330.075 100.412 332.677 102.028C337.55 105.098 339.582 111.005 342.237 116.122C342.938 117.475 343.765 118.857 345.03 119.713C344.519 111.982 341.927 104.532 337.527 98.15C333.128 91.7677 327.085 86.6895 320.036 83.4514Z" fill="black"/>
</g>
<path d="M287.064 81.273L287.124 81.2371C285.762 81.7398 284.435 82.3063 283.144 82.9367C275.899 86.4771 269.794 91.9771 265.525 98.8109C261.256 105.645 258.994 113.538 258.996 121.592C258.996 121.939 258.996 122.286 258.996 122.634C260.335 122.597 261.652 122.281 262.862 121.706C273.363 116.81 279.644 101.837 282.137 91.3932C283.037 87.6767 283.882 83.4454 287.064 81.273Z" fill="#632652"/>
<path d="M320.036 82.4819C316.626 80.9178 313.025 79.809 309.325 79.1843C312.359 79.8814 315.069 81.5811 317.015 84.008C317.968 85.303 318.76 86.71 319.37 88.1973C313.637 85.6943 307.428 84.4649 301.172 84.594C294.916 84.7232 288.763 86.2079 283.138 88.9454C285.841 94.8643 294.227 98.0901 299.825 100.251C305.954 102.613 312.148 104.773 318.405 106.732L312.867 102.244L325.376 104.23C325.511 101.745 325.215 99.2544 324.501 96.8692C326.898 98.7963 330.075 99.4427 332.676 101.059C337.549 104.129 339.581 110.036 342.236 115.153C342.938 116.505 343.765 117.888 345.029 118.743C344.518 111.013 341.926 103.563 337.527 97.1804C333.128 90.7981 327.085 85.7199 320.036 82.4819Z" fill="#632652"/>
<path opacity="0.1" d="M254.081 114.5C254.081 114.5 298.434 59.4406 349.747 114.5L345.311 102.166C345.311 102.166 321.234 67.0592 304.134 74.6359C287.034 82.2126 270.24 87.6048 270.24 87.6048L254.081 114.5Z" fill="black"/>
<path d="M254.081 113.525C254.081 113.525 298.434 58.4651 349.747 113.525L345.311 101.19C345.311 101.19 321.234 66.0837 304.134 73.6604C287.034 81.2371 270.24 86.6293 270.24 86.6293L254.081 113.525Z" fill="#E14B5A"/>
<path opacity="0.1" d="M217.651 232.137C217.651 232.137 208.151 257.44 221.451 280.212C234.751 302.984 209.733 312.476 209.733 312.476" fill="black"/>
<path opacity="0.1" d="M371.6 209.365C371.6 209.365 388.071 230.239 377.3 248.9C366.529 267.56 367.164 312.476 367.164 312.476" fill="black"/>
<path d="M203.08 331.136H386.171C390.204 331.136 394.071 332.736 396.923 335.583C399.775 338.431 401.377 342.293 401.377 346.32H187.88C187.88 342.294 189.481 338.433 192.332 335.586C195.182 332.738 199.048 331.138 203.08 331.136Z" fill="#535461"/>
<path d="M221.708 226.756H367.548C370.618 226.756 373.657 227.36 376.493 228.533C379.329 229.706 381.906 231.425 384.077 233.593C386.248 235.76 387.969 238.333 389.144 241.165C390.319 243.997 390.924 247.032 390.924 250.097V334.613H198.333V250.097C198.333 243.907 200.796 237.97 205.179 233.593C209.563 229.215 215.509 226.756 221.708 226.756Z" fill="#535461"/>
<path d="M294.466 296.82C300.766 296.82 305.872 291.721 305.872 285.431C305.872 279.141 300.766 274.042 294.466 274.042C288.167 274.042 283.06 279.141 283.06 285.431C283.06 291.721 288.167 296.82 294.466 296.82Z" fill="#6100FF"/>
<path opacity="0.1" d="M256.616 88.694C256.616 88.694 300.202 45.1968 347.211 87.898" stroke="black" stroke-miterlimit="10"/>
<path d="M358.222 85.9231H353.847V110.694H358.222V85.9231Z" fill="#6A5C99"/>
<path d="M348.009 101.95C352.008 101.95 355.844 103.537 358.672 106.361C361.5 109.184 363.089 113.014 363.089 117.008V117.977C363.089 121.971 361.5 125.801 358.672 128.625C355.844 131.449 352.008 133.035 348.009 133.035V101.95Z" fill="#FFD037"/>
<path d="M351.899 103.895C351.899 102.018 350.374 100.496 348.494 100.496C346.614 100.496 345.09 102.018 345.09 103.895V131.096C345.09 132.973 346.614 134.495 348.494 134.495C350.374 134.495 351.899 132.973 351.899 131.096V103.895Z" fill="#6A5C99"/>
<path d="M245.156 111.179H249.531V86.4078H245.156V111.179Z" fill="#6A5C99"/>
<path d="M255.369 133.52C251.37 133.52 247.534 131.933 244.706 129.11C241.878 126.286 240.289 122.456 240.289 118.462V117.493C240.289 115.515 240.679 113.557 241.437 111.73C242.195 109.903 243.306 108.244 244.706 106.845C246.106 105.447 247.769 104.338 249.598 103.581C251.428 102.825 253.389 102.435 255.369 102.435V133.52Z" fill="#FFD037"/>
<path d="M251.479 131.575C251.479 133.452 253.004 134.974 254.884 134.974C256.764 134.974 258.288 133.452 258.288 131.575V104.374C258.288 102.497 256.764 100.975 254.884 100.975C253.004 100.975 251.479 102.497 251.479 104.374V131.575Z" fill="#6A5C99"/>
<path d="M353.331 59.4465C347.403 47.1419 334.493 32.2638 306.664 31.0728V31.0369H306.328L296.468 31.5037V31.5516C268.825 32.8204 255.975 47.6446 250.065 59.9074C246.129 68.2204 244.039 77.2849 243.939 86.4797L247.344 86.3959L250.748 86.3181C250.895 78.1321 252.781 70.0705 256.28 62.6663C263.785 47.2736 277.594 39.0924 297.319 38.3323L306.04 37.8476C325.778 38.6016 339.593 46.7948 347.092 62.1816C350.597 69.5884 352.487 77.6544 352.636 85.8453L356.04 85.9231L359.445 86.0069C359.347 76.8171 357.261 67.7569 353.331 59.4465Z" fill="#FFD037"/>
<path d="M508.863 346.517H44.5215V471H508.863V346.517Z" fill="#4C238D"/>
<path opacity="0.1" d="M508.863 354.896H44.5215V371.055H508.863V354.896Z" fill="black"/>
<path d="M540 344.722H13.3721V360.881H540V344.722Z" fill="#4C238D"/>
<defs>
<linearGradient id="paint0_linear" x1="276.689" y1="352.801" x2="276.689" y2="28.1284" gradientUnits="userSpaceOnUse">
<stop stop-color="#808080" stop-opacity="0.25"/>
<stop offset="0.54" stop-color="#808080" stop-opacity="0.12"/>
<stop offset="1" stop-color="#808080" stop-opacity="0.1"/>
</linearGradient>
</defs>
</svg>
